<svg width="21" height="12" viewBox="0 0 21 12" fill="none" xmlns="http://www.w3.org/2000/svg">
<path d="M1.12305 2.29492C0.498047 2.29492 0 1.75781 0 1.15234C0 0.537109 0.498047 0 1.12305 0H19.3457C19.9707 0 20.4688 0.517578 20.4688 1.15234C20.4688 1.76758 19.9707 2.29492 19.3457 2.29492H1.12305ZM1.12305 6.94336C0.498047 6.94336 0 6.40625 0 5.80078C0 5.17578 0.498047 4.64844 1.12305 4.64844H19.3457C19.9707 4.64844 20.4688 5.16602 20.4688 5.80078C20.4688 6.41602 19.9707 6.94336 19.3457 6.94336H1.12305ZM1.12305 11.6016C0.498047 11.6016 0 11.0547 0 10.4492C0 9.83398 0.498047 9.30664 1.12305 9.30664H19.3457C19.9707 9.30664 20.4688 9.81445 20.4688 10.4492C20.4688 11.0645 19.9707 11.6016 19.3457 11.6016H1.12305Z" fill="#231F17"/>
</svg>
